<?xml version="1.0" encoding="utf-8"?>
<!-- Generator: Adobe Illustrator 23.0.1, SVG Export Plug-In . SVG Version: 6.00 Build 0)  -->
<svg version="1.1" id="Capa_1" xmlns="http://www.w3.org/2000/svg" xmlns:xlink="http://www.w3.org/1999/xlink" x="0px" y="0px"
	 viewBox="0 0 380.08 161.18" style="enable-background:new 0 0 380.08 161.18;" xml:space="preserve">
<style type="text/css">
	.st0{fill-rule:evenodd;clip-rule:evenodd;fill:#080030;}
	.st1{fill-rule:evenodd;clip-rule:evenodd;fill:#D7A937;}
	.st2{fill-rule:evenodd;clip-rule:evenodd;fill:#342435;}
	.st3{fill-rule:evenodd;clip-rule:evenodd;fill:#1C1333;}
	.st4{fill-rule:evenodd;clip-rule:evenodd;fill:#553E37;}
	.st5{fill-rule:evenodd;clip-rule:evenodd;fill:#785B3C;}
	.st6{fill-rule:evenodd;clip-rule:evenodd;fill:#674C38;}
	.st7{fill-rule:evenodd;clip-rule:evenodd;fill:#88683B;}
</style>
<path class="st0" d="M203.62,56.61h-2.46v1.23h-1.23v1.23h-1.26v1.23h-1.23v2.45h-1.23v-4.9h1.23V52.9h20.99v-1.23h1.23v4.93h1.23
	v4.9h-1.23v-2.45h-1.23v-1.23h-1.23v-1.23h-3.72v-1.25h-2.46v36.91h1.23v1.25h1.23v1.23h-8.63v-1.23h1.23V55.35h-2.46V56.61z
	 M170.31,52.9h19.73v1.23h1.23v1.23h1.26v6.16h-1.26v1.23h-1.23v2.48h-2.46v1.23h-1.23v1.23h1.23v1.23h2.46v1.23h1.23v1.25h1.26
	v2.45h1.23v2.45h1.23v12.31h-1.23v2.45h-1.23v1.23h-1.26v1.25h-2.46v1.23h-18.5v-1.23h1.23v-1.25h1.23V55.35h-1.23v-1.23h-1.23V52.9
	z M186.35,35.69h-3.72v1.23h-2.46v1.23h-1.23v1.23h-1.23v1.23h-2.49v1.25H174v1.23h-1.23v1.23h-1.23v2.45h-1.23v1.23h-1.23v2.48
	h-1.26v1.23h-1.23v3.68h-1.23v2.48h-1.23v4.9h-1.23v4.93h-1.23v11.09h1.23v6.13h1.23v4.93h1.23v2.45h1.23v2.48h1.23v2.45h1.26v2.45
	h1.23v1.23h1.23v2.48h1.23v1.23H174v1.23h1.23v1.23h2.49v1.23h1.23v1.25h2.46v1.23h2.46v1.23h2.49v1.23h16.04v-1.23h3.69v-1.23h2.49
	v-1.23h1.23v-1.25h2.46v-1.23h1.23v-1.23h1.26v-1.23h1.23v-1.23h1.23v-1.23h1.23v-2.48h1.23v-1.23h1.23v-2.45h1.26v-2.45h1.23v-3.71
	h1.23v-3.68h1.23v-4.93h1.23V66.44h-1.23v-4.93h-1.23v-3.68h-1.23v-3.71h-1.23v-2.45h-1.26v-2.45h-1.23v-1.25h-1.23v-2.45h-1.23
	v-1.23h-1.23v-1.23h-1.23v-1.23h-1.26v-1.25h-1.23v-1.23h-2.46v-1.23h-1.23v-1.23h-2.49v-1.23h-3.69v-1.23h-16.04V35.69z"/>
<path class="st1" d="M185.12,152.55v-2.45h2.46v3.68h1.23v2.48h1.23v1.23h-3.69v-2.45h-2.49v1.23h-1.23v-2.48h1.23v-1.23H185.12z
	 M203.62,148.87h2.46v2.45h2.49v-1.23h-1.23v-1.23h2.46v3.68h-2.46v3.71h-2.49v-6.16h-1.23V148.87z M197.45,153.77v-2.45h1.23v-2.45
	h3.72v1.23h-1.23v6.16h1.23v1.23h-3.72v-3.71H197.45z M197.45,153.77v2.48h-2.46v1.23h-3.72v-1.23h1.26v-6.16h-1.26v-1.23h3.72v2.45
	h1.23v2.45H197.45z M213.49,147.65v-1.23h3.72v1.23h1.23v1.23h-1.23v2.45h-2.46v1.23h1.23v1.23h1.23v1.25h-3.72v-3.71h-1.23v-2.45
	h-1.23v-1.23H213.49z M178.95,148.87h-3.72v6.16H174v-1.25h-1.23v-4.9H174v-1.23h7.4v2.45h-2.46V148.87z M169.09,152.55h-6.18v-3.68
	h1.23v-4.93h2.46v3.71h1.23v-2.48h1.26v1.25h1.23v2.45h-1.23V152.55z M222.15,147.65h4.92v3.68h-1.23v-1.23h-1.23v-1.23h-3.72v-4.93
	h3.72v1.23h-2.46V147.65z M228.3,141.49h2.49v2.45h1.23v1.23h1.23v3.71h-1.23v-1.23h-1.23v-2.48h-1.23v-2.45h-1.26V141.49z
	 M157.96,143.94h-1.23v3.71h2.46v1.23h-3.69v-1.23h-1.23v-3.71h1.23v-2.45h1.23v-1.23h2.46v1.23h-1.23V143.94z M236.93,137.78v-1.23
	h4.95v3.71h3.72v1.23h-4.95v1.23h1.23v1.23h-1.23v1.23h-1.23v-1.23h-1.23v-1.23h-1.26v-2.45h-1.23v-2.48H236.93z M150.56,139.04
	h-1.23v2.45h-1.23v1.23h-2.49v-1.23h1.26v-2.45h1.23v-1.25h1.23v-2.45h1.23v1.23h1.23v1.23h-1.23V139.04z M241.88,132.88h2.49v1.23
	h1.23v-2.45h1.23v1.23h1.23v1.23h-1.23v1.23h1.23v1.23h1.23v1.23h-1.23v1.25h-1.23v-1.25h-1.23v-1.23h-1.23v-1.23h-1.26v-1.23h-1.23
	V132.88z M141.92,134.11h-1.23v2.45h-1.23v-3.68h1.23v-1.23h1.23v-1.25h3.69v1.25h1.26v1.23h-4.95V134.11z M261.63,114.41h-1.23
	v2.48h-1.26v2.45h-1.23v1.23h-1.23v1.23h-1.23v-1.23H253v-1.23h-3.72v1.23h-1.23v1.23h-2.46v1.23h-1.23v1.25h-1.26v1.23h-1.23v1.23
	h-1.23v1.23h-1.23v1.23h-1.23v1.23h-1.26v1.25h-2.46v1.23h-1.23v1.23h-2.46v1.23h-1.23v1.23h-2.49v1.23h-2.46v1.25h-2.46v1.23h-3.72
	v1.23h-3.69v1.23h-4.95v1.23h-6.18v1.23h-20.99v-1.23h-6.18v-1.23h-3.69v-1.23h-3.69v-1.23h-3.72v-1.23h-2.46v-1.25h-2.49v-1.23
	h-2.46v-1.23h-1.23v-1.23h-2.46v-1.23h-1.26v-1.23h-2.46v-1.25h-1.23v-1.23h-1.23v-1.23h-2.49v-1.23h-1.23v-1.23h-1.23v-1.23h-1.23
	v-1.25h-1.23v-1.23h-1.23v-1.23h-1.26v-1.23h-3.69v1.23h-2.46v1.23h-2.49v1.23h-1.23v1.25h-1.23v1.23h-1.23v6.16h1.23v1.23h1.23
	v1.23h1.23v1.23h1.23v1.23h1.26v1.23h1.23v1.25h1.23v1.23h1.23v1.23h2.46v1.23h1.26v1.23h1.23v1.23h2.46v1.25h1.23v1.23h2.49v1.23
	h1.23v1.23h2.46v1.23h1.23v1.23h3.72v1.23h2.46v1.25h2.46v1.23h2.49v1.23h4.92v1.23h4.95v1.23h6.18v1.25h27.13v-1.25h8.66v-1.23
	h3.69v-1.23h3.72v-1.23h3.69v-1.23h2.46v-1.25h2.49v-1.23h2.46v-1.23h2.46v-1.23h2.49v-1.23h2.46v-1.23h1.23v-1.23h2.49v-1.25h1.23
	v-1.23h2.46v-1.23h1.23v1.23h9.86v-1.23h2.49v-1.23h1.23v-1.23h1.23v-1.23h1.23v-1.25h1.23v-2.45h1.26v-1.23h1.23v-1.23h1.23v-2.48
	h1.23v-1.23h1.23v-1.23h1.23v-2.45h1.26v-1.23h1.23v-1.25h1.23v-2.45h1.23v-1.23h-2.46v1.23h-6.18v1.23h-3.72v-2.45h-1.23v-3.71
	h-1.23v-2.45h-2.46V114.41z"/>
<path class="st1" d="M161.68,67.67h1.23v-4.93h1.23v-4.9h1.23v-2.48h1.23v-3.68h1.23v-1.23h1.26v-2.48h1.23v-1.23h1.23v-2.45h1.23
	v-1.23H174v-1.23h1.23v-1.25h2.49v-1.23h1.23v-1.23h1.23v-1.23h2.46v-1.23h3.72v-1.23h16.04v1.23h3.69v1.23h2.49v1.23h1.23v1.23
	h2.46v1.23h1.23v1.25h1.26v1.23h1.23v1.23h1.23v1.23h1.23v2.45h1.23v1.25h1.23v2.45h1.26v2.45h1.23v3.71h1.23v3.68h1.23v4.93h1.23
	v14.76h-1.23v4.93h-1.23v3.68h-1.23v3.71h-1.23v2.45h-1.26v2.45h-1.23v1.23h-1.23v2.48h-1.23v1.23h-1.23v1.23h-1.23v1.23h-1.26v1.23
	h-1.23v1.23h-2.46v1.25h-1.23v1.23h-2.49v1.23h-3.69v1.23h-16.04v-1.23h-2.49v-1.23h-2.46v-1.23h-2.46v-1.25h-1.23v-1.23h-2.49
	v-1.23H174v-1.23h-1.23v-1.23h-1.23v-2.48h-1.23v-1.23h-1.23V97.2h-1.26v-2.45h-1.23v-2.48h-1.23v-2.45h-1.23v-4.93h-1.23v-6.13
	h-1.23V67.67z M182.64,23.37v1.23h-1.23v4.93h-1.23v1.23h-2.46v1.23h-1.26v1.25H174v1.23h-1.23v1.23h-1.23v1.23h-1.23v1.23h-1.23
	v1.23h-1.26v1.23h-1.23v2.48h-1.23v1.23h-1.23v2.45h-1.23v2.48h-1.23v2.45h-1.26v2.45h-1.23v4.93h-1.23v4.93h-1.23v19.67h1.23v4.93
	h1.23v3.68h1.23v3.71h1.26v2.45h1.23v2.45h1.23v2.48h1.23v1.23h1.23v1.23h1.23v2.45h1.26v1.25h1.23v1.23h1.23v1.23h1.23v1.23h2.46
	v1.23h1.23v1.23h2.49v1.25h1.23v1.23h3.69v1.23h3.72v1.23h13.58v-1.23h3.69v-1.23h3.72v-1.23h2.46v-1.25h1.23v-1.23h2.49v-1.23h1.23
	v-1.23h1.23v-1.23h1.23v-1.23h1.23v-1.25h1.23v-1.23h1.26v-2.45h1.23v-1.23h1.23v-2.48h1.23v-1.23h1.23V97.2h1.23v-3.68h1.26v-3.71
	h1.23v-4.93h1.23V68.89h1.23v1.23h1.23v2.48h1.23v1.23h1.23v3.68h1.26v2.48h2.46v1.23h1.23v1.23h4.95v-8.61H253V72.6h1.23v-1.23
	h1.23v-2.48h1.23V57.83h-1.23v-1.23H253v2.45h-1.26v2.45h-1.23v1.23h-2.46v1.25h-1.23v-2.48h-1.23v-1.23h2.46v-1.23h1.23v-2.45h1.23
	v-8.64h-1.23v-3.68h-1.23v-1.23h-1.23v-2.48h-2.46v1.25h1.23v3.68h-1.23v2.45h-1.26v1.25h-1.23v-2.48h-3.69v1.23h-1.26v3.71h4.95
	v4.93h-2.46v-1.25h-2.49v-1.23h-3.69V52.9h-1.23v3.71h1.23v2.45h1.23v2.45h1.23v1.23h1.23v1.25h1.26v1.23h1.23v1.23h7.4v6.16h-1.23
	v-1.23h-1.23v-1.25h-1.26v-1.23h-2.46v-1.23h-8.63v-4.93h-1.23v-4.9h-1.23v-3.71h-1.26v-3.68h-1.23v-2.48h-1.23v-1.23h-1.23v-2.45
	h-1.23v-2.45h-1.23v-1.25h-1.26v-1.23h-1.23v-1.23h-1.23v-1.23h-1.23v-1.23h-1.23v-1.23h-1.23v-1.23h-2.49v-1.25h-1.23v-1.23h-2.46
	v-1.23h-1.23V24.6h-1.26v-1.23h-2.46v-1.23h-4.95v-1.23h-8.63v1.23h-3.69v1.23H182.64z"/>
<path class="st1" d="M182.64,15.99h1.23v1.23h-1.23V15.99z M182.64,15.99h-1.23v-4.9h1.23V9.83h1.23V6.16h-7.4v1.23h-3.69v1.23
	h-2.46v3.71h1.23v1.23h1.23v1.23H174v1.23h1.23v1.23h1.23v1.25h1.26v2.45h1.23v2.45h3.69v-1.23h1.23v-1.23h4.95V19.7h11.12v1.23
	h3.69v1.23h2.46v1.23h2.49v-1.23h1.23V19.7h1.23v-2.48h1.23v-1.23h1.23v-1.23h1.26v-1.23h1.23v-1.23h1.23v-1.23h1.23V8.61h-2.46
	V7.38h-2.49V6.16h-7.4v3.68h1.26v6.16h-1.26v1.23h-2.46v-1.23h1.23v-1.23h1.23v-2.45h-1.23v-1.23h-3.69v1.23h-1.23v3.68h-1.26V9.83
	h1.26V8.61h3.69V6.16h-2.46V3.71h-1.23V1.23h-3.72V0h-1.23v1.23h-2.46v2.48h-1.26v1.23h-6.15v3.68h2.46v1.23h2.46v6.16h-1.23v-4.9
	h-4.95v1.23h-1.23V15.99z"/>
<polygon class="st1" points="146.87,82.43 146.87,81.21 148.1,81.21 148.1,79.98 149.33,79.98 149.33,78.75 150.56,78.75 
	150.56,75.05 151.79,75.05 151.79,72.6 153.02,72.6 153.02,71.37 154.28,71.37 154.28,70.12 155.5,70.12 155.5,67.67 149.33,67.67 
	149.33,68.89 145.61,68.89 145.61,70.12 144.38,70.12 144.38,71.37 143.15,71.37 143.15,72.6 141.92,72.6 141.92,71.37 
	140.69,71.37 140.69,67.67 146.87,67.67 146.87,66.44 149.33,66.44 149.33,65.22 150.56,65.22 150.56,63.99 151.79,63.99 
	151.79,61.51 153.02,61.51 153.02,60.28 154.28,60.28 154.28,56.61 155.5,56.61 155.5,54.13 156.73,54.13 156.73,52.9 154.28,52.9 
	154.28,54.13 151.79,54.13 151.79,55.35 149.33,55.35 149.33,56.61 146.87,56.61 146.87,57.83 145.61,57.83 145.61,52.9 
	150.56,52.9 150.56,47.97 145.61,47.97 145.61,50.45 144.38,50.45 144.38,47.97 143.15,47.97 143.15,45.52 141.92,45.52 
	141.92,43.07 143.15,43.07 143.15,40.59 141.92,40.59 141.92,41.84 140.69,41.84 140.69,43.07 139.47,43.07 139.47,45.52 
	138.21,45.52 138.21,47.97 136.98,47.97 136.98,57.83 138.21,57.83 138.21,59.06 139.47,59.06 139.47,60.28 140.69,60.28 
	140.69,61.51 141.92,61.51 141.92,62.74 140.69,62.74 140.69,65.22 139.47,65.22 139.47,63.99 138.21,63.99 138.21,62.74 
	136.98,62.74 136.98,61.51 135.75,61.51 135.75,59.06 134.52,59.06 134.52,56.61 133.29,56.61 133.29,57.83 132.06,57.83 
	132.06,59.06 130.8,59.06 130.8,68.89 132.06,68.89 132.06,71.37 133.29,71.37 133.29,72.6 134.52,72.6 134.52,73.82 135.75,73.82 
	135.75,75.05 140.69,75.05 140.69,81.21 141.92,81.21 141.92,83.66 144.38,83.66 144.38,82.43 "/>
<path class="st1" d="M188.81,88.59h-1.23v1.23h-1.23v1.23h-2.49v1.23h-4.92v-1.23h-1.23V71.37h2.46v-1.25h2.46v-1.23h2.49v1.23h1.23
	v1.25h1.23v2.45h1.23v2.45h1.23v9.86h-1.23V88.59z M186.35,62.74h-1.23v2.48h-1.26v1.23h-2.46v1.23h-1.23v1.23h-2.46V56.61h1.23
	v-1.25h6.18v1.25h1.23v1.23h1.23v2.45h-1.23V62.74z M170.31,54.13h1.23v1.23h1.23v36.91h-1.23v1.25h-1.23v1.23h18.5v-1.23h2.46
	v-1.25h1.26v-1.23h1.23v-2.45h1.23V76.27h-1.23v-2.45h-1.23v-2.45h-1.26v-1.25h-1.23v-1.23h-2.46v-1.23h-1.23v-1.23h1.23v-1.23h2.46
	v-2.48h1.23v-1.23h1.26v-6.16h-1.26v-1.23h-1.23V52.9h-19.73V54.13z"/>
<polygon class="st1" points="218.43,52.9 197.45,52.9 197.45,57.83 196.22,57.83 196.22,62.74 197.45,62.74 197.45,60.28 
	198.68,60.28 198.68,59.06 199.93,59.06 199.93,57.83 201.16,57.83 201.16,56.61 203.62,56.61 203.62,55.35 206.08,55.35 
	206.08,93.52 204.85,93.52 204.85,94.74 213.49,94.74 213.49,93.52 212.26,93.52 212.26,92.26 211.03,92.26 211.03,55.35 
	213.49,55.35 213.49,56.61 217.2,56.61 217.2,57.83 218.43,57.83 218.43,59.06 219.66,59.06 219.66,61.51 220.89,61.51 
	220.89,56.61 219.66,56.61 219.66,51.68 218.43,51.68 "/>
<polygon class="st1" points="155.5,94.74 154.28,94.74 154.28,95.97 153.02,95.97 153.02,97.2 151.79,97.2 151.79,98.42 
	150.56,98.42 150.56,100.87 149.33,100.87 149.33,109.51 150.56,109.51 150.56,111.96 144.38,111.96 144.38,110.73 141.92,110.73 
	141.92,113.19 143.15,113.19 143.15,115.64 144.38,115.64 144.38,116.89 145.61,116.89 145.61,118.12 146.87,118.12 146.87,119.34 
	148.1,119.34 148.1,120.57 150.56,120.57 150.56,121.79 155.5,121.79 155.5,120.57 157.96,120.57 157.96,119.34 159.19,119.34 
	159.19,120.57 160.42,120.57 160.42,121.79 161.68,121.79 161.68,123.02 164.14,123.02 164.14,121.79 165.37,121.79 165.37,115.64 
	164.14,115.64 164.14,111.96 162.91,111.96 162.91,109.51 161.68,109.51 161.68,107.03 160.42,107.03 160.42,109.51 159.19,109.51 
	159.19,111.96 157.96,111.96 157.96,118.12 156.73,118.12 156.73,116.89 155.5,116.89 155.5,115.64 154.28,115.64 154.28,114.41 
	153.02,114.41 153.02,113.19 151.79,113.19 151.79,111.96 153.02,111.96 153.02,110.73 155.5,110.73 155.5,108.25 156.73,108.25 
	156.73,102.13 157.96,102.13 157.96,93.52 155.5,93.52 "/>
<polygon class="st0" points="182.64,70.12 180.18,70.12 180.18,71.37 177.72,71.37 177.72,91.04 178.95,91.04 178.95,92.26 
	183.87,92.26 183.87,91.04 186.35,91.04 186.35,89.81 187.58,89.81 187.58,88.59 188.81,88.59 188.81,86.14 190.04,86.14 
	190.04,76.27 188.81,76.27 188.81,73.82 187.58,73.82 187.58,71.37 186.35,71.37 186.35,70.12 185.12,70.12 185.12,68.89 
	182.64,68.89 "/>
<path class="st0" d="M11.12,89.81H9.86v1.23H7.4v-1.23H6.18v-6.16h4.95v2.48h1.23v2.45h-1.23V89.81z M9.86,81.21H6.18v-6.16h3.69
	v1.23h1.26v3.71H9.86V81.21z M0,73.82h1.23v17.22H0v1.23h14.81v-1.23h1.23v-1.23h1.23v-4.93h-1.23v-1.23h-1.23v-1.23h-1.23v-1.23
	h2.46v-6.16h-1.23v-1.23h-3.69V72.6H0V73.82z"/>
<polygon class="st1" points="203.62,132.88 203.62,134.11 201.16,134.11 201.16,135.33 203.62,135.33 203.62,136.56 204.85,136.56 
	204.85,137.78 207.34,137.78 207.34,139.04 218.43,139.04 218.43,137.78 220.89,137.78 220.89,136.56 222.15,136.56 222.15,135.33 
	223.38,135.33 223.38,134.11 215.97,134.11 215.97,132.88 214.74,132.88 214.74,131.66 212.26,131.66 212.26,130.4 214.74,130.4 
	214.74,129.18 215.97,129.18 215.97,127.95 217.2,127.95 217.2,126.72 218.43,126.72 218.43,125.5 219.66,125.5 219.66,121.79 
	220.89,121.79 220.89,113.19 218.43,113.19 218.43,114.41 217.2,114.41 217.2,116.89 215.97,116.89 215.97,118.12 214.74,118.12 
	214.74,119.34 213.49,119.34 213.49,120.57 212.26,120.57 212.26,123.02 211.03,123.02 211.03,124.27 209.8,124.27 209.8,127.95 
	211.03,127.95 211.03,131.66 207.34,131.66 207.34,132.88 "/>
<path class="st0" d="M69.1,77.5h1.23v-2.45h2.49v-1.23h2.46v1.23h1.23v1.23h1.23v12.31h-1.23v2.45h-6.18v-2.45H69.1V77.5z
	 M70.33,73.82h-2.46v1.23h-2.46v2.45h-1.23v2.48h-1.26v6.16h1.26v2.45h1.23v1.23h1.23v1.23h1.23v1.23h3.72v1.25h4.92v-1.25H79v-1.23
	h1.23v-1.23h1.23v-1.23h1.23v-2.45h1.23v-7.38h-1.23v-2.48h-1.23v-1.23h-1.23v-1.23h-3.72V72.6h-6.18V73.82z"/>
<path class="st0" d="M24.67,77.5h1.26v-2.45h2.46v-1.23h2.46v1.23h1.23v1.23h1.26v12.31h-1.26v2.45h-6.15v-2.45h-1.26V77.5z
	 M25.93,73.82h-2.49v1.23h-2.46v2.45h-1.23v2.48h-1.23v6.16h1.23v2.45h1.23v1.23h1.23v1.23h1.23v1.23h3.72v1.25h4.92v-1.25h2.49
	v-1.23h1.23v-1.23h1.23v-1.23h1.23v-2.45h1.23v-7.38h-1.23v-2.48h-1.23v-1.23H35.8v-1.23h-3.72V72.6h-6.15V73.82z"/>
<polygon class="st1" points="167.83,123.02 169.09,123.02 169.09,125.5 170.31,125.5 170.31,127.95 167.83,127.95 167.83,126.72 
	166.6,126.72 166.6,125.5 164.14,125.5 164.14,124.27 160.42,124.27 160.42,125.5 151.79,125.5 151.79,127.95 153.02,127.95 
	153.02,129.18 154.28,129.18 154.28,130.4 156.73,130.4 156.73,131.66 159.19,131.66 159.19,132.88 165.37,132.88 165.37,131.66 
	167.83,131.66 167.83,130.4 170.31,130.4 170.31,129.18 174,129.18 174,130.4 177.72,130.4 177.72,123.02 176.46,123.02 
	176.46,121.79 175.23,121.79 175.23,120.57 174,120.57 174,118.12 172.77,118.12 172.77,116.89 171.54,116.89 171.54,115.64 
	170.31,115.64 170.31,114.41 169.09,114.41 169.09,113.19 167.83,113.19 "/>
<polygon class="st0" points="48.15,73.82 45.66,73.82 45.66,75.05 44.43,75.05 44.43,76.27 43.2,76.27 43.2,77.5 41.97,77.5 
	41.97,79.98 40.71,79.98 40.71,86.14 41.97,86.14 41.97,88.59 43.2,88.59 43.2,89.81 44.43,89.81 44.43,91.04 45.66,91.04 
	45.66,92.26 49.38,92.26 49.38,93.52 55.52,93.52 55.52,92.26 59.24,92.26 59.24,91.04 60.47,91.04 60.47,84.88 61.7,84.88 
	61.7,83.66 53.06,83.66 53.06,84.88 54.29,84.88 54.29,86.14 55.52,86.14 55.52,91.04 49.38,91.04 49.38,89.81 48.15,89.81 
	48.15,88.59 46.89,88.59 46.89,77.5 48.15,77.5 48.15,76.27 49.38,76.27 49.38,75.05 50.61,75.05 50.61,73.82 54.29,73.82 
	54.29,75.05 56.78,75.05 56.78,76.27 58.01,76.27 58.01,78.75 59.24,78.75 59.24,79.98 60.47,79.98 60.47,72.6 59.24,72.6 
	59.24,73.82 55.52,73.82 55.52,72.6 48.15,72.6 "/>
<path class="st1" d="M230.78,116.89v1.23h-1.23v-1.23H230.78z M230.78,116.89v-3.71h-1.23v-3.68h-1.26v-2.48h-1.23v1.23h-1.23v2.48
	h-1.23v2.45h-1.23v4.93h-1.23v2.45h1.23v1.23h1.23v1.23h2.46v-1.23h1.23v-2.45h2.49v1.23h8.63v-1.23h2.46v-1.23h1.23v-1.23h1.26
	v-2.48h1.23v-2.45h1.23v-1.23h-4.95v1.23h-6.18v1.23h-1.23v1.23h-1.23v1.23h-1.23v1.25H230.78z"/>
<polygon class="st0" points="285.08,75.05 286.31,75.05 286.31,91.04 283.85,91.04 283.85,92.26 301.12,92.26 301.12,91.04 
	302.35,91.04 302.35,86.14 301.12,86.14 301.12,88.59 299.89,88.59 299.89,89.81 297.43,89.81 297.43,91.04 292.48,91.04 
	292.48,83.66 293.71,83.66 293.71,84.88 294.94,84.88 294.94,87.36 296.17,87.36 296.17,77.5 294.94,77.5 294.94,81.21 
	292.48,81.21 292.48,75.05 297.43,75.05 297.43,76.27 298.66,76.27 298.66,77.5 299.89,77.5 299.89,79.98 301.12,79.98 
	301.12,73.82 285.08,73.82 "/>
<polygon class="st0" points="329.51,75.05 330.74,75.05 330.74,91.04 328.28,91.04 328.28,92.26 335.68,92.26 335.68,91.04 
	333.2,91.04 333.2,78.75 334.43,78.75 334.43,79.98 335.68,79.98 335.68,82.43 336.91,82.43 336.91,83.66 338.14,83.66 
	338.14,84.88 339.37,84.88 339.37,86.14 340.6,86.14 340.6,87.36 341.83,87.36 341.83,88.59 343.09,88.59 343.09,89.81 
	344.32,89.81 344.32,92.26 345.55,92.26 345.55,93.52 346.78,93.52 346.78,75.05 348.01,75.05 348.01,73.82 344.32,73.82 
	344.32,75.05 345.55,75.05 345.55,83.66 344.32,83.66 344.32,82.43 343.09,82.43 343.09,81.21 341.83,81.21 341.83,79.98 
	340.6,79.98 340.6,78.75 339.37,78.75 339.37,76.27 338.14,76.27 338.14,75.05 336.91,75.05 336.91,73.82 329.51,73.82 "/>
<polygon class="st0" points="370.22,73.82 367.76,73.82 367.76,75.05 366.53,75.05 366.53,77.5 365.3,77.5 365.3,79.98 
	366.53,79.98 366.53,82.43 367.76,82.43 367.76,83.66 370.22,83.66 370.22,84.88 372.68,84.88 372.68,86.14 375.17,86.14 
	375.17,87.36 376.4,87.36 376.4,91.04 370.22,91.04 370.22,89.81 368.99,89.81 368.99,88.59 367.76,88.59 367.76,86.14 365.3,86.14 
	365.3,92.26 371.45,92.26 371.45,93.52 375.17,93.52 375.17,92.26 377.63,92.26 377.63,91.04 378.86,91.04 378.86,89.81 
	380.08,89.81 380.08,83.66 378.86,83.66 378.86,82.43 377.63,82.43 377.63,81.21 375.17,81.21 375.17,79.98 372.68,79.98 
	372.68,78.75 370.22,78.75 370.22,75.05 376.4,75.05 376.4,77.5 377.63,77.5 377.63,79.98 378.86,79.98 378.86,72.6 377.63,72.6 
	377.63,73.82 375.17,73.82 375.17,72.6 370.22,72.6 "/>
<polygon class="st0" points="306.06,75.05 307.29,75.05 307.29,76.27 308.52,76.27 308.52,89.81 307.29,89.81 307.29,91.04 
	304.83,91.04 304.83,92.26 312.21,92.26 312.21,91.04 309.75,91.04 309.75,78.75 310.98,78.75 310.98,79.98 312.21,79.98 
	312.21,81.21 313.47,81.21 313.47,82.43 314.7,82.43 314.7,84.88 315.93,84.88 315.93,86.14 317.16,86.14 317.16,87.36 
	318.39,87.36 318.39,88.59 319.62,88.59 319.62,89.81 320.87,89.81 320.87,91.04 322.1,91.04 322.1,92.26 323.33,92.26 
	323.33,75.05 325.79,75.05 325.79,73.82 320.87,73.82 320.87,75.05 322.1,75.05 322.1,83.66 320.87,83.66 320.87,82.43 
	319.62,82.43 319.62,81.21 318.39,81.21 318.39,79.98 317.16,79.98 317.16,77.5 315.93,77.5 315.93,76.27 314.7,76.27 314.7,75.05 
	313.47,75.05 313.47,73.82 306.06,73.82 "/>
<polygon class="st0" points="85.14,78.75 86.4,78.75 86.4,76.27 87.63,76.27 87.63,75.05 91.32,75.05 91.32,91.04 88.86,91.04 
	88.86,92.26 98.72,92.26 98.72,91.04 96.26,91.04 96.26,75.05 99.95,75.05 99.95,76.27 101.21,76.27 101.21,78.75 102.44,78.75 
	102.44,72.6 85.14,72.6 "/>
<path class="st0" d="M107.36,84.88h1.26v-2.45h1.23v-1.23h1.23v2.45h1.23v2.48h-4.95V84.88z M111.07,75.05h-1.23v2.45h-1.23v3.71
	h-1.26v2.45h-1.23v2.48h-1.23v2.45h-1.23v2.45h-2.46v1.23h6.15v-1.23h-1.23v-3.68h7.4v2.45h1.23v1.23h-2.46v1.23h9.86v-1.23h-2.46
	v-2.45h-1.23v-2.45h-1.23v-3.71h-1.26v-2.45h-1.23V77.5h-1.23v-3.68h-1.23V72.6h-1.23V75.05z"/>
<polygon class="st1" points="130.8,75.05 129.57,75.05 129.57,84.88 130.8,84.88 130.8,87.36 132.06,87.36 132.06,88.59 
	133.29,88.59 133.29,89.81 134.52,89.81 134.52,91.04 136.98,91.04 136.98,92.26 139.47,92.26 139.47,91.04 141.92,91.04 
	141.92,87.36 140.69,87.36 140.69,83.66 139.47,83.66 139.47,81.21 138.21,81.21 138.21,79.98 135.75,79.98 135.75,78.75 
	134.52,78.75 134.52,77.5 133.29,77.5 133.29,75.05 132.06,75.05 132.06,73.82 130.8,73.82 "/>
<polygon class="st1" points="255.46,75.05 254.23,75.05 254.23,77.5 253,77.5 253,78.75 250.51,78.75 250.51,79.98 249.28,79.98 
	249.28,81.21 248.05,81.21 248.05,84.88 246.82,84.88 246.82,88.59 245.59,88.59 245.59,91.04 253,91.04 253,89.81 254.23,89.81 
	254.23,88.59 255.46,88.59 255.46,87.36 256.69,87.36 256.69,84.88 257.92,84.88 257.92,73.82 256.69,73.82 256.69,72.6 
	255.46,72.6 "/>
<polygon class="st0" points="262.86,78.75 264.09,78.75 264.09,76.27 265.32,76.27 265.32,75.05 269.04,75.05 269.04,91.04 
	266.55,91.04 266.55,92.26 277.67,92.26 277.67,91.04 275.21,91.04 275.21,89.81 273.96,89.81 273.96,75.05 278.9,75.05 278.9,77.5 
	280.13,77.5 280.13,78.75 281.36,78.75 281.36,73.82 262.86,73.82 "/>
<polygon class="st0" points="352.95,75.05 354.18,75.05 354.18,91.04 351.72,91.04 351.72,92.26 362.82,92.26 362.82,91.04 
	360.36,91.04 360.36,73.82 352.95,73.82 "/>
<polygon class="st1" points="148.1,81.21 148.1,82.43 146.87,82.43 146.87,83.66 145.61,83.66 145.61,86.14 144.38,86.14 
	144.38,88.59 143.15,88.59 143.15,95.97 144.38,95.97 144.38,97.2 148.1,97.2 148.1,95.97 149.33,95.97 149.33,94.74 150.56,94.74 
	150.56,92.26 151.79,92.26 151.79,88.59 153.02,88.59 153.02,81.21 154.28,81.21 154.28,78.75 153.02,78.75 153.02,79.98 
	150.56,79.98 150.56,81.21 "/>
<polygon class="st1" points="245.59,95.97 245.59,92.26 244.36,92.26 244.36,87.36 243.11,87.36 243.11,84.88 241.88,84.88 
	241.88,82.43 240.65,82.43 240.65,81.21 238.19,81.21 238.19,79.98 235.7,79.98 235.7,78.75 234.47,78.75 234.47,84.88 235.7,84.88 
	235.7,89.81 236.93,89.81 236.93,93.52 238.19,93.52 238.19,94.74 239.42,94.74 239.42,95.97 "/>
<polygon class="st1" points="230.78,105.8 232.01,105.8 232.01,109.51 233.24,109.51 233.24,110.73 238.19,110.73 238.19,107.03 
	239.42,107.03 239.42,102.13 238.19,102.13 238.19,99.65 236.93,99.65 236.93,97.2 235.7,97.2 235.7,95.97 234.47,95.97 
	234.47,94.74 233.24,94.74 233.24,93.52 230.78,93.52 "/>
<polygon class="st1" points="178.95,123.02 180.18,123.02 180.18,126.72 181.41,126.72 181.41,129.18 182.64,129.18 182.64,130.4 
	183.87,130.4 183.87,131.66 185.12,131.66 185.12,132.88 187.58,132.88 187.58,134.11 192.53,134.11 192.53,127.95 191.27,127.95 
	191.27,126.72 190.04,126.72 190.04,125.5 187.58,125.5 187.58,124.27 186.35,124.27 186.35,123.02 185.12,123.02 185.12,121.79 
	182.64,121.79 182.64,120.57 180.18,120.57 180.18,119.34 178.95,119.34 "/>
<polygon class="st1" points="174,132.88 172.77,132.88 172.77,134.11 169.09,134.11 169.09,135.33 165.37,135.33 165.37,136.56 
	166.6,136.56 166.6,137.78 169.09,137.78 169.09,139.04 174,139.04 174,140.26 176.46,140.26 176.46,139.04 181.41,139.04 
	181.41,137.78 183.87,137.78 183.87,136.56 185.12,136.56 185.12,135.33 186.35,135.33 186.35,134.11 183.87,134.11 183.87,132.88 
	180.18,132.88 180.18,131.66 174,131.66 "/>
<polygon class="st1" points="201.16,134.11 201.16,132.88 203.62,132.88 203.62,131.66 204.85,131.66 204.85,130.4 206.08,130.4 
	206.08,127.95 207.34,127.95 207.34,125.5 208.57,125.5 208.57,121.79 209.8,121.79 209.8,119.34 207.34,119.34 207.34,120.57 
	204.85,120.57 204.85,121.79 203.62,121.79 203.62,123.02 202.39,123.02 202.39,124.27 199.93,124.27 199.93,125.5 198.68,125.5 
	198.68,126.72 197.45,126.72 197.45,127.95 196.22,127.95 196.22,134.11 "/>
<polygon class="st1" points="245.59,95.97 245.59,97.2 244.36,97.2 244.36,98.42 243.11,98.42 243.11,100.87 241.88,100.87 
	241.88,103.35 240.65,103.35 240.65,104.58 241.88,104.58 241.88,105.8 248.05,105.8 248.05,104.58 249.28,104.58 249.28,103.35 
	250.51,103.35 250.51,102.13 251.74,102.13 251.74,100.87 253,100.87 253,98.42 254.23,98.42 254.23,92.26 251.74,92.26 
	251.74,93.52 250.51,93.52 250.51,94.74 248.05,94.74 248.05,95.97 "/>
<polygon class="st1" points="134.52,99.65 135.75,99.65 135.75,102.13 136.98,102.13 136.98,103.35 138.21,103.35 138.21,104.58 
	139.47,104.58 139.47,105.8 141.92,105.8 141.92,107.03 144.38,107.03 144.38,105.8 146.87,105.8 146.87,102.13 145.61,102.13 
	145.61,100.87 144.38,100.87 144.38,98.42 143.15,98.42 143.15,97.2 141.92,97.2 141.92,95.97 138.21,95.97 138.21,94.74 
	136.98,94.74 136.98,93.52 135.75,93.52 135.75,92.26 134.52,92.26 "/>
<polygon class="st1" points="217.2,127.95 217.2,129.18 218.43,129.18 218.43,130.4 220.89,130.4 220.89,131.66 224.61,131.66 
	224.61,132.88 227.07,132.88 227.07,131.66 230.78,131.66 230.78,130.4 233.24,130.4 233.24,129.18 234.47,129.18 234.47,127.95 
	235.7,127.95 235.7,126.72 236.93,126.72 236.93,125.5 228.3,125.5 228.3,124.27 223.38,124.27 223.38,125.5 222.15,125.5 
	222.15,126.72 219.66,126.72 219.66,127.95 "/>
<polygon class="st0" points="178.95,56.61 177.72,56.61 177.72,68.89 180.18,68.89 180.18,67.67 181.41,67.67 181.41,66.44 
	183.87,66.44 183.87,65.22 185.12,65.22 185.12,62.74 186.35,62.74 186.35,60.28 187.58,60.28 187.58,57.83 186.35,57.83 
	186.35,56.61 185.12,56.61 185.12,55.35 178.95,55.35 "/>
<polygon class="st2" points="164.14,148.87 162.91,148.87 162.91,152.55 169.09,152.55 169.09,148.87 170.31,148.87 170.31,146.42 
	169.09,146.42 169.09,145.17 167.83,145.17 167.83,147.65 166.6,147.65 166.6,143.94 164.14,143.94 "/>
<path class="st3" d="M236.93,137.78h2.49v2.48h-1.23v-1.23h-1.26V137.78z M236.93,137.78h-1.23v2.48h1.23v2.45h1.26v1.23h1.23v1.23
	h1.23v-1.23h1.23v-1.23h-1.23v-1.23h4.95v-1.23h-3.72v-3.71h-4.95V137.78z"/>
<polygon class="st4" points="197.45,153.77 196.22,153.77 196.22,151.32 194.99,151.32 194.99,148.87 191.27,148.87 191.27,150.1 
	192.53,150.1 192.53,156.25 191.27,156.25 191.27,157.48 194.99,157.48 194.99,156.25 197.45,156.25 "/>
<polygon class="st2" points="197.45,153.77 198.68,153.77 198.68,157.48 202.39,157.48 202.39,156.25 201.16,156.25 201.16,150.1 
	202.39,150.1 202.39,148.87 198.68,148.87 198.68,151.32 197.45,151.32 "/>
<polygon class="st3" points="203.62,150.1 204.85,150.1 204.85,156.25 207.34,156.25 207.34,152.55 209.8,152.55 209.8,148.87 
	207.34,148.87 207.34,150.1 208.57,150.1 208.57,151.32 206.08,151.32 206.08,148.87 203.62,148.87 "/>
<polygon class="st3" points="245.59,134.11 244.36,134.11 244.36,132.88 241.88,132.88 241.88,134.11 243.11,134.11 243.11,135.33 
	244.36,135.33 244.36,136.56 245.59,136.56 245.59,137.78 246.82,137.78 246.82,139.04 248.05,139.04 248.05,137.78 249.28,137.78 
	249.28,136.56 248.05,136.56 248.05,135.33 246.82,135.33 246.82,134.11 248.05,134.11 248.05,132.88 246.82,132.88 246.82,131.66 
	245.59,131.66 "/>
<polygon class="st3" points="156.73,141.49 155.5,141.49 155.5,143.94 154.28,143.94 154.28,147.65 155.5,147.65 155.5,148.87 
	159.19,148.87 159.19,147.65 156.73,147.65 156.73,143.94 157.96,143.94 157.96,141.49 159.19,141.49 159.19,140.26 156.73,140.26 
	"/>
<polygon class="st3" points="217.2,150.1 214.74,150.1 214.74,148.87 213.49,148.87 213.49,147.65 211.03,147.65 211.03,148.87 
	212.26,148.87 212.26,151.32 213.49,151.32 213.49,155.03 217.2,155.03 217.2,153.77 215.97,153.77 215.97,152.55 214.74,152.55 
	214.74,151.32 217.2,151.32 "/>
<polygon class="st2" points="178.95,148.87 178.95,147.65 174,147.65 174,148.87 172.77,148.87 172.77,153.77 174,153.77 
	174,155.03 175.23,155.03 175.23,148.87 "/>
<polygon class="st3" points="220.89,148.87 224.61,148.87 224.61,150.1 225.84,150.1 225.84,151.32 227.07,151.32 227.07,147.65 
	222.15,147.65 222.15,145.17 224.61,145.17 224.61,143.94 220.89,143.94 "/>
<polygon class="st3" points="185.12,152.55 186.35,152.55 186.35,157.48 190.04,157.48 190.04,156.25 188.81,156.25 188.81,153.77 
	187.58,153.77 187.58,150.1 185.12,150.1 "/>
<polygon class="st2" points="141.92,131.66 140.69,131.66 140.69,132.88 139.47,132.88 139.47,136.56 140.69,136.56 140.69,134.11 
	141.92,134.11 141.92,132.88 146.87,132.88 146.87,131.66 145.61,131.66 145.61,130.4 141.92,130.4 "/>
<polygon class="st0" points="149.33,137.78 148.1,137.78 148.1,139.04 146.87,139.04 146.87,141.49 145.61,141.49 145.61,142.71 
	148.1,142.71 148.1,141.49 149.33,141.49 149.33,139.04 150.56,139.04 150.56,137.78 151.79,137.78 151.79,136.56 150.56,136.56 
	150.56,135.33 149.33,135.33 "/>
<polygon class="st0" points="228.3,142.71 229.55,142.71 229.55,145.17 230.78,145.17 230.78,147.65 232.01,147.65 232.01,148.87 
	233.24,148.87 233.24,145.17 232.01,145.17 232.01,143.94 230.78,143.94 230.78,141.49 228.3,141.49 "/>
<polygon class="st1" points="148.1,45.52 149.33,45.52 149.33,46.75 151.79,46.75 151.79,45.52 153.02,45.52 153.02,43.07 
	148.1,43.07 "/>
<polygon class="st1" points="234.47,45.52 238.19,45.52 238.19,44.29 239.42,44.29 239.42,43.07 238.19,43.07 238.19,41.84 
	234.47,41.84 "/>
<polygon class="st5" points="217.2,150.1 217.2,148.87 218.43,148.87 218.43,147.65 217.2,147.65 217.2,146.42 213.49,146.42 
	213.49,148.87 214.74,148.87 214.74,150.1 "/>
<polygon class="st1" points="153.02,39.36 151.79,39.36 151.79,41.84 155.5,41.84 155.5,38.14 153.02,38.14 "/>
<polygon class="st1" points="233.24,38.14 232.01,38.14 232.01,40.59 235.7,40.59 235.7,38.14 234.47,38.14 234.47,36.91 
	233.24,36.91 "/>
<polygon class="st6" points="186.35,155.03 186.35,152.55 183.87,152.55 183.87,153.77 182.64,153.77 182.64,156.25 183.87,156.25 
	183.87,155.03 "/>
<polygon class="st1" points="229.55,34.46 228.3,34.46 228.3,35.69 229.55,35.69 229.55,36.91 232.01,36.91 232.01,34.46 
	230.78,34.46 230.78,33.23 229.55,33.23 "/>
<polygon class="st1" points="156.73,35.69 155.5,35.69 155.5,36.91 156.73,36.91 156.73,38.14 157.96,38.14 157.96,36.91 
	159.19,36.91 159.19,35.69 157.96,35.69 157.96,34.46 156.73,34.46 "/>
<rect x="178.95" y="147.65" class="st7" width="2.46" height="2.45"/>
<polygon class="st1" points="236.93,137.78 236.93,139.04 238.19,139.04 238.19,140.26 239.42,140.26 239.42,137.78 "/>
<polygon class="st1" points="225.84,30.75 224.61,30.75 224.61,31.98 227.07,31.98 227.07,29.53 225.84,29.53 "/>
<rect x="160.42" y="30.75" class="st1" width="1.26" height="2.48"/>
</svg>
