<?xml version="1.0" encoding="utf-8"?>
<!-- Generator: Adobe Illustrator 23.0.1, SVG Export Plug-In . SVG Version: 6.00 Build 0)  -->
<svg version="1.1" id="Capa_1" xmlns="http://www.w3.org/2000/svg" xmlns:xlink="http://www.w3.org/1999/xlink" x="0px" y="0px"
	 viewBox="0 0 170.64 161.18" style="enable-background:new 0 0 170.64 161.18;" xml:space="preserve">
<style type="text/css">
	.st0{fill-rule:evenodd;clip-rule:evenodd;fill:#080030;}
	.st1{fill-rule:evenodd;clip-rule:evenodd;fill:#D7A937;}
	.st2{fill-rule:evenodd;clip-rule:evenodd;fill:#342435;}
	.st3{fill-rule:evenodd;clip-rule:evenodd;fill:#1C1333;}
	.st4{fill-rule:evenodd;clip-rule:evenodd;fill:#553E37;}
	.st5{fill-rule:evenodd;clip-rule:evenodd;fill:#785B3C;}
	.st6{fill-rule:evenodd;clip-rule:evenodd;fill:#674C38;}
	.st7{fill-rule:evenodd;clip-rule:evenodd;fill:#88683B;}
</style>
<rect class="st0" width="170.64" height="161.18"/>
<g>
	<path class="st0" d="M86.39,59.7h-2.14v1.07h-1.07v1.07h-1.1v1.07h-1.07v2.13h-1.07v-4.27h1.07v-4.29h18.28v-1.07h1.07v4.29h1.07
		v4.27h-1.07v-2.13h-1.07v-1.07h-1.07V59.7h-3.24v-1.09h-2.14v32.15h1.07v1.09h1.07v1.07h-7.52v-1.07h1.07V58.61h-2.14V59.7z
		 M57.38,56.48h17.18v1.07h1.07v1.07h1.1v5.36h-1.1v1.07h-1.07v2.16h-2.14v1.07h-1.07v1.07h1.07v1.07h2.14v1.07h1.07v1.09h1.1v2.13
		h1.07v2.13h1.07v10.72H77.8v2.13h-1.07v1.07h-1.1v1.09h-2.14v1.07H57.38v-1.07h1.07v-1.09h1.07V58.61h-1.07v-1.07h-1.07V56.48z
		 M71.35,41.48h-3.24v1.07h-2.14v1.07H64.9v1.07h-1.07v1.07h-2.17v1.09h-1.07v1.07h-1.07v1.07h-1.07v2.13h-1.07v1.07h-1.07v2.16
		h-1.1v1.07h-1.07v3.2h-1.07v2.16H52v4.27h-1.07v4.29h-1.07v9.66h1.07v5.34H52v4.29h1.07v2.13h1.07v2.16h1.07v2.13h1.1v2.13h1.07
		v1.07h1.07v2.16h1.07v1.07h1.07v1.07h1.07v1.07h2.17v1.07h1.07v1.09h2.14v1.07h2.14v1.07h2.17v1.07h13.97v-1.07h3.21v-1.07h2.17
		v-1.07h1.07v-1.09h2.14v-1.07h1.07v-1.07h1.1v-1.07h1.07v-1.07h1.07v-1.07h1.07v-2.16h1.07v-1.07h1.07v-2.13h1.1v-2.13h1.07v-3.23
		h1.07v-3.2h1.07v-4.29h1.07V68.27h-1.07v-4.29h-1.07v-3.2h-1.07v-3.23h-1.07v-2.13h-1.1v-2.13h-1.07v-1.09h-1.07v-2.13h-1.07v-1.07
		h-1.07v-1.07h-1.07v-1.07h-1.1v-1.09h-1.07v-1.07h-2.14v-1.07H90.7v-1.07h-2.17v-1.07h-3.21v-1.07H71.35V41.48z"/>
	<path class="st1" d="M70.28,143.26v-2.13h2.14v3.2h1.07v2.16h1.07v1.07h-3.21v-2.13h-2.17v1.07h-1.07v-2.16h1.07v-1.07H70.28z
		 M86.39,140.06h2.14v2.13h2.17v-1.07h-1.07v-1.07h2.14v3.2h-2.14v3.23h-2.17v-5.36h-1.07V140.06z M81.01,144.33v-2.13h1.07v-2.13
		h3.24v1.07h-1.07v5.36h1.07v1.07h-3.24v-3.23H81.01z M81.01,144.33v2.16h-2.14v1.07h-3.24v-1.07h1.1v-5.36h-1.1v-1.07h3.24v2.13
		h1.07v2.13H81.01z M94.98,138.99v-1.07h3.24v1.07h1.07v1.07h-1.07v2.13h-2.14v1.07h1.07v1.07h1.07v1.09h-3.24v-3.23h-1.07v-2.13
		h-1.07v-1.07H94.98z M64.9,140.06h-3.24v5.36h-1.07v-1.09h-1.07v-4.27h1.07v-1.07h6.45v2.13H64.9V140.06z M56.31,143.26h-5.38v-3.2
		H52v-4.29h2.14v3.23h1.07v-2.16h1.1v1.09h1.07v2.13h-1.07V143.26z M102.53,138.99h4.28v3.2h-1.07v-1.07h-1.07v-1.07h-3.24v-4.29
		h3.24v1.07h-2.14V138.99z M107.88,133.63h2.17v2.13h1.07v1.07h1.07v3.23h-1.07v-1.07h-1.07v-2.16h-1.07v-2.13h-1.1V133.63z
		 M46.63,135.76h-1.07v3.23h2.14v1.07h-3.21v-1.07h-1.07v-3.23h1.07v-2.13h1.07v-1.07h2.14v1.07h-1.07V135.76z M115.4,130.4v-1.07
		h4.31v3.23h3.24v1.07h-4.31v1.07h1.07v1.07h-1.07v1.07h-1.07v-1.07h-1.07v-1.07h-1.1v-2.13h-1.07v-2.16H115.4z M40.18,131.49h-1.07
		v2.13h-1.07v1.07h-2.17v-1.07h1.1v-2.13h1.07v-1.09h1.07v-2.13h1.07v1.07h1.07v1.07h-1.07V131.49z M119.71,126.13h2.17v1.07h1.07
		v-2.13h1.07v1.07h1.07v1.07h-1.07v1.07h1.07v1.07h1.07v1.07h-1.07v1.09h-1.07v-1.09h-1.07v-1.07h-1.07v-1.07h-1.1v-1.07h-1.07
		V126.13z M32.66,127.2h-1.07v2.13h-1.07v-3.2h1.07v-1.07h1.07v-1.09h3.21v1.09h1.1v1.07h-4.31V127.2z M136.91,110.05h-1.07v2.16
		h-1.1v2.13h-1.07v1.07h-1.07v1.07h-1.07v-1.07h-2.14v-1.07h-3.24v1.07h-1.07v1.07h-2.14v1.07h-1.07v1.09h-1.1v1.07h-1.07v1.07
		h-1.07v1.07h-1.07v1.07h-1.07v1.07h-1.1v1.09h-2.14v1.07h-1.07v1.07h-2.14v1.07h-1.07v1.07h-2.17v1.07h-2.14v1.09h-2.14v1.07h-3.24
		v1.07h-3.21v1.07h-4.31v1.07h-5.38v1.07H68.11v-1.07h-5.38v-1.07h-3.21v-1.07h-3.21v-1.07h-3.24v-1.07h-2.14v-1.09h-2.17v-1.07
		h-2.14v-1.07h-1.07v-1.07h-2.14v-1.07h-1.1v-1.07h-2.14v-1.09h-1.07v-1.07h-1.07v-1.07h-2.17v-1.07H34.8v-1.07h-1.07v-1.07h-1.07
		v-1.09h-1.07v-1.07h-1.07v-1.07h-1.1v-1.07h-3.21v1.07h-2.14v1.07H21.9v1.07h-1.07v1.09h-1.07v1.07h-1.07v5.36h1.07v1.07h1.07v1.07
		h1.07v1.07h1.07v1.07h1.1v1.07h1.07v1.09h1.07v1.07h1.07v1.07h2.14v1.07h1.1v1.07h1.07v1.07h2.14v1.09h1.07v1.07h2.17v1.07h1.07
		v1.07h2.14v1.07h1.07v1.07h3.24v1.07h2.14v1.09h2.14v1.07h2.17v1.07h4.28v1.07h4.31v1.07h5.38v1.09h23.63v-1.09h7.54v-1.07h3.21
		v-1.07h3.24v-1.07h3.21v-1.07h2.14v-1.09h2.17v-1.07h2.14v-1.07h2.14v-1.07h2.17v-1.07h2.14v-1.07h1.07v-1.07h2.17v-1.09h1.07
		v-1.07h2.14v-1.07h1.07v1.07h8.59v-1.07h2.17v-1.07h1.07v-1.07h1.07v-1.07h1.07v-1.09h1.07v-2.13h1.1v-1.07h1.07v-1.07h1.07v-2.16
		h1.07v-1.07h1.07v-1.07h1.07v-2.13h1.1v-1.07h1.07v-1.09h1.07v-2.13h1.07v-1.07h-2.14v1.07h-5.38v1.07h-3.24v-2.13h-1.07v-3.23
		h-1.07v-2.13h-2.14V110.05z"/>
	<path class="st1" d="M49.86,69.34h1.07v-4.29H52v-4.27h1.07v-2.16h1.07v-3.2h1.07v-1.07h1.1v-2.16h1.07v-1.07h1.07v-2.13h1.07
		v-1.07h1.07v-1.07h1.07v-1.09h2.17v-1.07h1.07v-1.07h1.07v-1.07h2.14v-1.07h3.24v-1.07h13.97v1.07h3.21v1.07h2.17v1.07h1.07v1.07
		h2.14v1.07h1.07v1.09h1.1v1.07h1.07v1.07h1.07v1.07h1.07v2.13h1.07v1.09h1.07v2.13h1.1v2.13h1.07v3.23h1.07v3.2h1.07v4.29h1.07
		v12.86h-1.07v4.29h-1.07v3.2h-1.07v3.23h-1.07v2.13h-1.1v2.13h-1.07v1.07h-1.07v2.16h-1.07v1.07h-1.07v1.07h-1.07v1.07h-1.1v1.07
		h-1.07v1.07h-2.14v1.09H90.7v1.07h-2.17v1.07h-3.21v1.07H71.35v-1.07h-2.17v-1.07h-2.14v-1.07H64.9v-1.09h-1.07v-1.07h-2.17v-1.07
		h-1.07v-1.07h-1.07v-1.07h-1.07v-2.16h-1.07v-1.07h-1.07v-2.13h-1.1v-2.13h-1.07v-2.16h-1.07v-2.13H52v-4.29h-1.07v-5.34h-1.07
		V69.34z M68.11,30.76v1.07h-1.07v4.29h-1.07v1.07h-2.14v1.07h-1.1v1.09h-2.14v1.07h-1.07v1.07h-1.07v1.07h-1.07v1.07h-1.07v1.07
		h-1.1v1.07h-1.07v2.16h-1.07v1.07H52v2.13h-1.07v2.16h-1.07v2.13h-1.1v2.13H47.7v4.29h-1.07v4.29h-1.07v17.13h1.07v4.29h1.07v3.2
		h1.07v3.23h1.1v2.13h1.07v2.13H52v2.16h1.07v1.07h1.07v1.07h1.07v2.13h1.1v1.09h1.07v1.07h1.07v1.07h1.07v1.07h2.14v1.07h1.07v1.07
		h2.17v1.09h1.07v1.07h3.21v1.07h3.24v1.07h11.83v-1.07h3.21v-1.07h3.24v-1.07h2.14v-1.09h1.07v-1.07h2.17v-1.07h1.07v-1.07h1.07
		v-1.07h1.07v-1.07h1.07v-1.09h1.07v-1.07h1.1v-2.13h1.07v-1.07h1.07v-2.16h1.07v-1.07h1.07v-2.13h1.07v-3.2h1.1v-3.23h1.07v-4.29
		h1.07V70.4h1.07v1.07h1.07v2.16h1.07v1.07h1.07v3.2h1.1v2.16h2.14v1.07h1.07v1.07h4.31v-7.5h5.38v-1.07h1.07v-1.07h1.07V70.4h1.07
		v-9.63h-1.07V59.7h-2.14v2.13h-1.1v2.13h-1.07v1.07h-2.14v1.09h-1.07v-2.16h-1.07v-1.07h2.14v-1.07h1.07V59.7h1.07v-7.52h-1.07
		v-3.2h-1.07v-1.07h-1.07v-2.16h-2.14v1.09h1.07v3.2h-1.07v2.13h-1.1v1.09h-1.07v-2.16h-3.21v1.07h-1.1v3.23h4.31v4.29h-2.14v-1.09
		h-2.17v-1.07h-3.21v-1.07h-1.07v3.23h1.07v2.13h1.07v2.13h1.07v1.07h1.07v1.09h1.1v1.07h1.07v1.07h6.45v5.36h-1.07v-1.07h-1.07
		v-1.09h-1.1V70.4h-2.14v-1.07h-7.52v-4.29h-1.07v-4.27h-1.07v-3.23h-1.1v-3.2h-1.07v-2.16h-1.07v-1.07h-1.07v-2.13h-1.07v-2.13
		h-1.07v-1.09h-1.1v-1.07h-1.07v-1.07h-1.07v-1.07h-1.07v-1.07h-1.07v-1.07h-1.07v-1.07h-2.17v-1.09h-1.07v-1.07H90.7v-1.07h-1.07
		v-4.29h-1.1v-1.07h-2.14v-1.07h-4.31v-1.07h-7.52v1.07h-3.21v1.07H68.11z"/>
	<path class="st1" d="M68.11,24.33h1.07v1.07h-1.07V24.33z M68.11,24.33h-1.07v-4.27h1.07v-1.09h1.07v-3.2h-6.45v1.07h-3.21v1.07
		h-2.14v3.23h1.07v1.07h1.07v1.07h1.07v1.07h1.07v1.07h1.07v1.09h1.1v2.13h1.07v2.13h3.21v-1.07h1.07v-1.07h4.31v-1.07h9.69v1.07
		h3.21v1.07h2.14v1.07h2.17v-1.07h1.07v-2.13h1.07V25.4h1.07v-1.07h1.07v-1.07h1.1V22.2h1.07v-1.07h1.07v-1.07h1.07V17.9h-2.14
		v-1.07h-2.17v-1.07h-6.45v3.2h1.1v5.36h-1.1v1.07h-2.14v-1.07h1.07v-1.07h1.07v-2.13h-1.07v-1.07h-3.21v1.07h-1.07v3.2h-1.1v-5.36
		h1.1V17.9h3.21v-2.13h-2.14v-2.13h-1.07v-2.16h-3.24v-1.07h-1.07v1.07h-2.14v2.16h-1.1v1.07h-5.35v3.2h2.14v1.07h2.14v5.36h-1.07
		v-4.27h-4.31v1.07h-1.07V24.33z"/>
	<polygon class="st1" points="36.97,82.19 36.97,81.13 38.04,81.13 38.04,80.06 39.11,80.06 39.11,78.99 40.18,78.99 40.18,75.76 
		41.25,75.76 41.25,73.63 42.32,73.63 42.32,72.56 43.41,72.56 43.41,71.47 44.49,71.47 44.49,69.34 39.11,69.34 39.11,70.4 
		35.87,70.4 35.87,71.47 34.8,71.47 34.8,72.56 33.73,72.56 33.73,73.63 32.66,73.63 32.66,72.56 31.59,72.56 31.59,69.34 
		36.97,69.34 36.97,68.27 39.11,68.27 39.11,67.2 40.18,67.2 40.18,66.13 41.25,66.13 41.25,63.97 42.32,63.97 42.32,62.91 
		43.41,62.91 43.41,59.7 44.49,59.7 44.49,57.54 45.56,57.54 45.56,56.48 43.41,56.48 43.41,57.54 41.25,57.54 41.25,58.61 
		39.11,58.61 39.11,59.7 36.97,59.7 36.97,60.77 35.87,60.77 35.87,56.48 40.18,56.48 40.18,52.18 35.87,52.18 35.87,54.34 
		34.8,54.34 34.8,52.18 33.73,52.18 33.73,50.05 32.66,50.05 32.66,47.91 33.73,47.91 33.73,45.75 32.66,45.75 32.66,46.85 
		31.59,46.85 31.59,47.91 30.52,47.91 30.52,50.05 29.42,50.05 29.42,52.18 28.35,52.18 28.35,60.77 29.42,60.77 29.42,61.84 
		30.52,61.84 30.52,62.91 31.59,62.91 31.59,63.97 32.66,63.97 32.66,65.04 31.59,65.04 31.59,67.2 30.52,67.2 30.52,66.13 
		29.42,66.13 29.42,65.04 28.35,65.04 28.35,63.97 27.28,63.97 27.28,61.84 26.21,61.84 26.21,59.7 25.14,59.7 25.14,60.77 
		24.07,60.77 24.07,61.84 22.97,61.84 22.97,70.4 24.07,70.4 24.07,72.56 25.14,72.56 25.14,73.63 26.21,73.63 26.21,74.7 
		27.28,74.7 27.28,75.76 31.59,75.76 31.59,81.13 32.66,81.13 32.66,83.26 34.8,83.26 34.8,82.19 	"/>
	<path class="st1" d="M73.49,87.56h-1.07v1.07h-1.07v1.07h-2.17v1.07H64.9v-1.07h-1.07V72.56h2.14v-1.09h2.14V70.4h2.17v1.07h1.07
		v1.09h1.07v2.13h1.07v2.13h1.07v8.59h-1.07V87.56z M71.35,65.04h-1.07v2.16h-1.1v1.07h-2.14v1.07h-1.07v1.07h-2.14V59.7h1.07v-1.09
		h5.38v1.09h1.07v1.07h1.07v2.13h-1.07V65.04z M57.38,57.54h1.07v1.07h1.07v32.15h-1.07v1.09h-1.07v1.07h16.11v-1.07h2.14v-1.09h1.1
		v-1.07h1.07v-2.13h1.07V76.83H77.8V74.7h-1.07v-2.13h-1.1v-1.09h-1.07V70.4h-2.14v-1.07h-1.07v-1.07h1.07V67.2h2.14v-2.16h1.07
		v-1.07h1.1v-5.36h-1.1v-1.07h-1.07v-1.07H57.38V57.54z"/>
	<polygon class="st1" points="99.29,56.48 81.01,56.48 81.01,60.77 79.94,60.77 79.94,65.04 81.01,65.04 81.01,62.91 82.08,62.91 
		82.08,61.84 83.18,61.84 83.18,60.77 84.25,60.77 84.25,59.7 86.39,59.7 86.39,58.61 88.53,58.61 88.53,91.85 87.46,91.85 
		87.46,92.92 94.98,92.92 94.98,91.85 93.91,91.85 93.91,90.76 92.84,90.76 92.84,58.61 94.98,58.61 94.98,59.7 98.22,59.7 
		98.22,60.77 99.29,60.77 99.29,61.84 100.36,61.84 100.36,63.97 101.43,63.97 101.43,59.7 100.36,59.7 100.36,55.41 99.29,55.41 	
		"/>
	<polygon class="st1" points="44.49,92.92 43.41,92.92 43.41,93.98 42.32,93.98 42.32,95.05 41.25,95.05 41.25,96.12 40.18,96.12 
		40.18,98.25 39.11,98.25 39.11,105.78 40.18,105.78 40.18,107.91 34.8,107.91 34.8,106.84 32.66,106.84 32.66,108.98 33.73,108.98 
		33.73,111.11 34.8,111.11 34.8,112.2 35.87,112.2 35.87,113.27 36.97,113.27 36.97,114.34 38.04,114.34 38.04,115.41 40.18,115.41 
		40.18,116.47 44.49,116.47 44.49,115.41 46.63,115.41 46.63,114.34 47.7,114.34 47.7,115.41 48.77,115.41 48.77,116.47 
		49.86,116.47 49.86,117.54 52,117.54 52,116.47 53.08,116.47 53.08,111.11 52,111.11 52,107.91 50.93,107.91 50.93,105.78 
		49.86,105.78 49.86,103.62 48.77,103.62 48.77,105.78 47.7,105.78 47.7,107.91 46.63,107.91 46.63,113.27 45.56,113.27 
		45.56,112.2 44.49,112.2 44.49,111.11 43.41,111.11 43.41,110.05 42.32,110.05 42.32,108.98 41.25,108.98 41.25,107.91 
		42.32,107.91 42.32,106.84 44.49,106.84 44.49,104.68 45.56,104.68 45.56,99.35 46.63,99.35 46.63,91.85 44.49,91.85 	"/>
	<polygon class="st0" points="68.11,71.47 65.97,71.47 65.97,72.56 63.83,72.56 63.83,89.69 64.9,89.69 64.9,90.76 69.19,90.76 
		69.19,89.69 71.35,89.69 71.35,88.62 72.42,88.62 72.42,87.56 73.49,87.56 73.49,85.42 74.56,85.42 74.56,76.83 73.49,76.83 
		73.49,74.7 72.42,74.7 72.42,72.56 71.35,72.56 71.35,71.47 70.28,71.47 70.28,70.4 68.11,70.4 	"/>
	<polygon class="st1" points="86.39,126.13 86.39,127.2 84.25,127.2 84.25,128.27 86.39,128.27 86.39,129.33 87.46,129.33 
		87.46,130.4 89.63,130.4 89.63,131.49 99.29,131.49 99.29,130.4 101.43,130.4 101.43,129.33 102.53,129.33 102.53,128.27 
		103.6,128.27 103.6,127.2 97.15,127.2 97.15,126.13 96.08,126.13 96.08,125.06 93.91,125.06 93.91,123.97 96.08,123.97 
		96.08,122.9 97.15,122.9 97.15,121.84 98.22,121.84 98.22,120.77 99.29,120.77 99.29,119.7 100.36,119.7 100.36,116.47 
		101.43,116.47 101.43,108.98 99.29,108.98 99.29,110.05 98.22,110.05 98.22,112.2 97.15,112.2 97.15,113.27 96.08,113.27 
		96.08,114.34 94.98,114.34 94.98,115.41 93.91,115.41 93.91,117.54 92.84,117.54 92.84,118.63 91.77,118.63 91.77,121.84 
		92.84,121.84 92.84,125.06 89.63,125.06 89.63,126.13 	"/>
	<polygon class="st1" points="55.22,117.54 56.31,117.54 56.31,119.7 57.38,119.7 57.38,121.84 55.22,121.84 55.22,120.77 
		54.15,120.77 54.15,119.7 52,119.7 52,118.63 48.77,118.63 48.77,119.7 41.25,119.7 41.25,121.84 42.32,121.84 42.32,122.9 
		43.41,122.9 43.41,123.97 45.56,123.97 45.56,125.06 47.7,125.06 47.7,126.13 53.08,126.13 53.08,125.06 55.22,125.06 
		55.22,123.97 57.38,123.97 57.38,122.9 60.59,122.9 60.59,123.97 63.83,123.97 63.83,117.54 62.74,117.54 62.74,116.47 
		61.67,116.47 61.67,115.41 60.59,115.41 60.59,113.27 59.52,113.27 59.52,112.2 58.45,112.2 58.45,111.11 57.38,111.11 
		57.38,110.05 56.31,110.05 56.31,108.98 55.22,108.98 	"/>
	<path class="st1" d="M110.05,112.2v1.07h-1.07v-1.07H110.05z M110.05,112.2v-3.23h-1.07v-3.2h-1.1v-2.16h-1.07v1.07h-1.07v2.16
		h-1.07v2.13h-1.07v4.29h-1.07v2.13h1.07v1.07h1.07v1.07h2.14v-1.07h1.07v-2.13h2.17v1.07h7.52v-1.07h2.14v-1.07h1.07v-1.07h1.1
		v-2.16h1.07v-2.13h1.07v-1.07h-4.31v1.07h-5.38v1.07h-1.07v1.07h-1.07v1.07h-1.07v1.09H110.05z"/>
	<polygon class="st1" points="22.97,75.76 21.9,75.76 21.9,84.33 22.97,84.33 22.97,86.49 24.07,86.49 24.07,87.56 25.14,87.56 
		25.14,88.62 26.21,88.62 26.21,89.69 28.35,89.69 28.35,90.76 30.52,90.76 30.52,89.69 32.66,89.69 32.66,86.49 31.59,86.49 
		31.59,83.26 30.52,83.26 30.52,81.13 29.42,81.13 29.42,80.06 27.28,80.06 27.28,78.99 26.21,78.99 26.21,77.9 25.14,77.9 
		25.14,75.76 24.07,75.76 24.07,74.7 22.97,74.7 	"/>
	<polygon class="st1" points="131.53,75.76 130.46,75.76 130.46,77.9 129.39,77.9 129.39,78.99 127.23,78.99 127.23,80.06 
		126.15,80.06 126.15,81.13 125.08,81.13 125.08,84.33 124.01,84.33 124.01,87.56 122.94,87.56 122.94,89.69 129.39,89.69 
		129.39,88.62 130.46,88.62 130.46,87.56 131.53,87.56 131.53,86.49 132.6,86.49 132.6,84.33 133.67,84.33 133.67,74.7 132.6,74.7 
		132.6,73.63 131.53,73.63 	"/>
	<polygon class="st1" points="38.04,81.13 38.04,82.19 36.97,82.19 36.97,83.26 35.87,83.26 35.87,85.42 34.8,85.42 34.8,87.56 
		33.73,87.56 33.73,93.98 34.8,93.98 34.8,95.05 38.04,95.05 38.04,93.98 39.11,93.98 39.11,92.92 40.18,92.92 40.18,90.76 
		41.25,90.76 41.25,87.56 42.32,87.56 42.32,81.13 43.41,81.13 43.41,78.99 42.32,78.99 42.32,80.06 40.18,80.06 40.18,81.13 	"/>
	<polygon class="st1" points="122.94,93.98 122.94,90.76 121.87,90.76 121.87,86.49 120.78,86.49 120.78,84.33 119.71,84.33 
		119.71,82.19 118.64,82.19 118.64,81.13 116.49,81.13 116.49,80.06 114.33,80.06 114.33,78.99 113.26,78.99 113.26,84.33 
		114.33,84.33 114.33,88.62 115.4,88.62 115.4,91.85 116.49,91.85 116.49,92.92 117.56,92.92 117.56,93.98 	"/>
	<polygon class="st1" points="110.05,102.55 111.12,102.55 111.12,105.78 112.19,105.78 112.19,106.84 116.49,106.84 116.49,103.62 
		117.56,103.62 117.56,99.35 116.49,99.35 116.49,97.19 115.4,97.19 115.4,95.05 114.33,95.05 114.33,93.98 113.26,93.98 
		113.26,92.92 112.19,92.92 112.19,91.85 110.05,91.85 	"/>
	<polygon class="st1" points="64.9,117.54 65.97,117.54 65.97,120.77 67.04,120.77 67.04,122.9 68.11,122.9 68.11,123.97 
		69.19,123.97 69.19,125.06 70.28,125.06 70.28,126.13 72.42,126.13 72.42,127.2 76.73,127.2 76.73,121.84 75.63,121.84 
		75.63,120.77 74.56,120.77 74.56,119.7 72.42,119.7 72.42,118.63 71.35,118.63 71.35,117.54 70.28,117.54 70.28,116.47 
		68.11,116.47 68.11,115.41 65.97,115.41 65.97,114.34 64.9,114.34 	"/>
	<polygon class="st1" points="60.59,126.13 59.52,126.13 59.52,127.2 56.31,127.2 56.31,128.27 53.08,128.27 53.08,129.33 
		54.15,129.33 54.15,130.4 56.31,130.4 56.31,131.49 60.59,131.49 60.59,132.56 62.74,132.56 62.74,131.49 67.04,131.49 
		67.04,130.4 69.19,130.4 69.19,129.33 70.28,129.33 70.28,128.27 71.35,128.27 71.35,127.2 69.19,127.2 69.19,126.13 65.97,126.13 
		65.97,125.06 60.59,125.06 	"/>
	<polygon class="st1" points="84.25,127.2 84.25,126.13 86.39,126.13 86.39,125.06 87.46,125.06 87.46,123.97 88.53,123.97 
		88.53,121.84 89.63,121.84 89.63,119.7 90.7,119.7 90.7,116.47 91.77,116.47 91.77,114.34 89.63,114.34 89.63,115.41 87.46,115.41 
		87.46,116.47 86.39,116.47 86.39,117.54 85.32,117.54 85.32,118.63 83.18,118.63 83.18,119.7 82.08,119.7 82.08,120.77 
		81.01,120.77 81.01,121.84 79.94,121.84 79.94,127.2 	"/>
	<polygon class="st1" points="122.94,93.98 122.94,95.05 121.87,95.05 121.87,96.12 120.78,96.12 120.78,98.25 119.71,98.25 
		119.71,100.41 118.64,100.41 118.64,101.48 119.71,101.48 119.71,102.55 125.08,102.55 125.08,101.48 126.15,101.48 126.15,100.41 
		127.23,100.41 127.23,99.35 128.3,99.35 128.3,98.25 129.39,98.25 129.39,96.12 130.46,96.12 130.46,90.76 128.3,90.76 
		128.3,91.85 127.23,91.85 127.23,92.92 125.08,92.92 125.08,93.98 	"/>
	<polygon class="st1" points="26.21,97.19 27.28,97.19 27.28,99.35 28.35,99.35 28.35,100.41 29.42,100.41 29.42,101.48 
		30.52,101.48 30.52,102.55 32.66,102.55 32.66,103.62 34.8,103.62 34.8,102.55 36.97,102.55 36.97,99.35 35.87,99.35 35.87,98.25 
		34.8,98.25 34.8,96.12 33.73,96.12 33.73,95.05 32.66,95.05 32.66,93.98 29.42,93.98 29.42,92.92 28.35,92.92 28.35,91.85 
		27.28,91.85 27.28,90.76 26.21,90.76 	"/>
	<polygon class="st1" points="98.22,121.84 98.22,122.9 99.29,122.9 99.29,123.97 101.43,123.97 101.43,125.06 104.67,125.06 
		104.67,126.13 106.81,126.13 106.81,125.06 110.05,125.06 110.05,123.97 112.19,123.97 112.19,122.9 113.26,122.9 113.26,121.84 
		114.33,121.84 114.33,120.77 115.4,120.77 115.4,119.7 107.88,119.7 107.88,118.63 103.6,118.63 103.6,119.7 102.53,119.7 
		102.53,120.77 100.36,120.77 100.36,121.84 	"/>
	<polygon class="st0" points="64.9,59.7 63.83,59.7 63.83,70.4 65.97,70.4 65.97,69.34 67.04,69.34 67.04,68.27 69.19,68.27 
		69.19,67.2 70.28,67.2 70.28,65.04 71.35,65.04 71.35,62.91 72.42,62.91 72.42,60.77 71.35,60.77 71.35,59.7 70.28,59.7 
		70.28,58.61 64.9,58.61 	"/>
	<polygon class="st2" points="52,140.06 50.93,140.06 50.93,143.26 56.31,143.26 56.31,140.06 57.38,140.06 57.38,137.92 
		56.31,137.92 56.31,136.83 55.22,136.83 55.22,138.99 54.15,138.99 54.15,135.76 52,135.76 	"/>
	<path class="st3" d="M115.4,130.4h2.17v2.16h-1.07v-1.07h-1.1V130.4z M115.4,130.4h-1.07v2.16h1.07v2.13h1.1v1.07h1.07v1.07h1.07
		v-1.07h1.07v-1.07h-1.07v-1.07h4.31v-1.07h-3.24v-3.23h-4.31V130.4z"/>
	<polygon class="st4" points="81.01,144.33 79.94,144.33 79.94,142.19 78.87,142.19 78.87,140.06 75.63,140.06 75.63,141.12 
		76.73,141.12 76.73,146.49 75.63,146.49 75.63,147.55 78.87,147.55 78.87,146.49 81.01,146.49 	"/>
	<polygon class="st2" points="81.01,144.33 82.08,144.33 82.08,147.55 85.32,147.55 85.32,146.49 84.25,146.49 84.25,141.12 
		85.32,141.12 85.32,140.06 82.08,140.06 82.08,142.19 81.01,142.19 	"/>
	<polygon class="st3" points="86.39,141.12 87.46,141.12 87.46,146.49 89.63,146.49 89.63,143.26 91.77,143.26 91.77,140.06 
		89.63,140.06 89.63,141.12 90.7,141.12 90.7,142.19 88.53,142.19 88.53,140.06 86.39,140.06 	"/>
	<polygon class="st3" points="122.94,127.2 121.87,127.2 121.87,126.13 119.71,126.13 119.71,127.2 120.78,127.2 120.78,128.27 
		121.87,128.27 121.87,129.33 122.94,129.33 122.94,130.4 124.01,130.4 124.01,131.49 125.08,131.49 125.08,130.4 126.15,130.4 
		126.15,129.33 125.08,129.33 125.08,128.27 124.01,128.27 124.01,127.2 125.08,127.2 125.08,126.13 124.01,126.13 124.01,125.06 
		122.94,125.06 	"/>
	<polygon class="st3" points="45.56,133.63 44.49,133.63 44.49,135.76 43.41,135.76 43.41,138.99 44.49,138.99 44.49,140.06 
		47.7,140.06 47.7,138.99 45.56,138.99 45.56,135.76 46.63,135.76 46.63,133.63 47.7,133.63 47.7,132.56 45.56,132.56 	"/>
	<polygon class="st3" points="98.22,141.12 96.08,141.12 96.08,140.06 94.98,140.06 94.98,138.99 92.84,138.99 92.84,140.06 
		93.91,140.06 93.91,142.19 94.98,142.19 94.98,145.42 98.22,145.42 98.22,144.33 97.15,144.33 97.15,143.26 96.08,143.26 
		96.08,142.19 98.22,142.19 	"/>
	<polygon class="st2" points="64.9,140.06 64.9,138.99 60.59,138.99 60.59,140.06 59.52,140.06 59.52,144.33 60.59,144.33 
		60.59,145.42 61.67,145.42 61.67,140.06 	"/>
	<polygon class="st3" points="101.43,140.06 104.67,140.06 104.67,141.12 105.74,141.12 105.74,142.19 106.81,142.19 106.81,138.99 
		102.53,138.99 102.53,136.83 104.67,136.83 104.67,135.76 101.43,135.76 	"/>
	<polygon class="st3" points="70.28,143.26 71.35,143.26 71.35,147.55 74.56,147.55 74.56,146.49 73.49,146.49 73.49,144.33 
		72.42,144.33 72.42,141.12 70.28,141.12 	"/>
	<polygon class="st2" points="32.66,125.06 31.59,125.06 31.59,126.13 30.52,126.13 30.52,129.33 31.59,129.33 31.59,127.2 
		32.66,127.2 32.66,126.13 36.97,126.13 36.97,125.06 35.87,125.06 35.87,123.97 32.66,123.97 	"/>
	<polygon class="st0" points="39.11,130.4 38.04,130.4 38.04,131.49 36.97,131.49 36.97,133.63 35.87,133.63 35.87,134.69 
		38.04,134.69 38.04,133.63 39.11,133.63 39.11,131.49 40.18,131.49 40.18,130.4 41.25,130.4 41.25,129.33 40.18,129.33 
		40.18,128.27 39.11,128.27 	"/>
	<polygon class="st0" points="107.88,134.69 108.97,134.69 108.97,136.83 110.05,136.83 110.05,138.99 111.12,138.99 111.12,140.06 
		112.19,140.06 112.19,136.83 111.12,136.83 111.12,135.76 110.05,135.76 110.05,133.63 107.88,133.63 	"/>
	<polygon class="st1" points="38.04,50.05 39.11,50.05 39.11,51.12 41.25,51.12 41.25,50.05 42.32,50.05 42.32,47.91 38.04,47.91 	
		"/>
	<polygon class="st1" points="113.26,50.05 116.49,50.05 116.49,48.98 117.56,48.98 117.56,47.91 116.49,47.91 116.49,46.85 
		113.26,46.85 	"/>
	<polygon class="st5" points="98.22,141.12 98.22,140.06 99.29,140.06 99.29,138.99 98.22,138.99 98.22,137.92 94.98,137.92 
		94.98,140.06 96.08,140.06 96.08,141.12 	"/>
	<polygon class="st1" points="42.32,44.69 41.25,44.69 41.25,46.85 44.49,46.85 44.49,43.62 42.32,43.62 	"/>
	<polygon class="st1" points="112.19,43.62 111.12,43.62 111.12,45.75 114.33,45.75 114.33,43.62 113.26,43.62 113.26,42.55 
		112.19,42.55 	"/>
	<polygon class="st6" points="71.35,145.42 71.35,143.26 69.19,143.26 69.19,144.33 68.11,144.33 68.11,146.49 69.19,146.49 
		69.19,145.42 	"/>
	<polygon class="st1" points="108.97,40.42 107.88,40.42 107.88,41.48 108.97,41.48 108.97,42.55 111.12,42.55 111.12,40.42 
		110.05,40.42 110.05,39.35 108.97,39.35 	"/>
	<polygon class="st1" points="45.56,41.48 44.49,41.48 44.49,42.55 45.56,42.55 45.56,43.62 46.63,43.62 46.63,42.55 47.7,42.55 
		47.7,41.48 46.63,41.48 46.63,40.42 45.56,40.42 	"/>
	<rect x="64.9" y="138.99" class="st7" width="2.14" height="2.13"/>
	<polygon class="st1" points="115.4,130.4 115.4,131.49 116.49,131.49 116.49,132.56 117.56,132.56 117.56,130.4 	"/>
	<polygon class="st1" points="105.74,37.19 104.67,37.19 104.67,38.26 106.81,38.26 106.81,36.12 105.74,36.12 	"/>
	<rect x="48.77" y="37.19" class="st1" width="1.1" height="2.16"/>
</g>
</svg>
